X-Men 4 Origins Wolverine 2009 1080p DTS.x264

Verenigde Staten
Actie / Science-Fiction
107 minuten

geregisseerd door Gavin Hood
met Hugh Jackman, Liev Schreiber en Danny Huston

Logan en Victor zijn broers en tevens mutanten met bijzondere gaven. Nadat ze als soldaten worden gearresteerd, vraagt kolonel William Stryker het tweetal voor een bijzondere opdracht met een speciaal team van mutanten. Ze besluiten het te doen, maar op een gegeven moment stapt Logan op, om een vredig leven te starten. Als Logan een aantal jaren later echter wordt geconfronteerd met zijn gewelddadige broer Victor, besluit hij opnieuw met Stryker in zee te gaan. Stryker maakt van hem een uitzonderlijke mutant, sterk genoeg om Victor te verslaan. Wolverine is geboren.
 
http://www.moviemeter.nl/film/47763


English
Storyline
Two mutant brothers, Logan and Victor, born 200 years ago, suffer childhood trauma and have only each other to depend on. Basically, they're fighters and killers, living from war to war through U.S. history. In modern times, a U.S. colonel, Stryker, recruits them and other mutants as commandos. Logan quits and becomes a logger, falling in love with a local teacher. When Logan refuses to rejoin Stryker's crew, the colonel sends the murderous Victor. Logan now wants revenge.
 
http://www.imdb.com/title/tt0458525/

Categorie : Beeld 
Formaat : x264HD 
Bron : Retail

Format                           : Matroska
File size                        : 7.91 GiB
Duration                         : 1h 47mn
Overall bit rate                 : 10.6 Mbps
Encoded date                     : UTC 2009-09-16 22:32:53
Writing application              : mkvmerge v2.9.8 ('C'est le bon') built on Aug 13 2009 12:49:06
Writing library                  : libebml v0.7.7 + libmatroska v0.8.1

Video
ID                               : 1
Format                           : AVC
Format/Info                      : Advanced Video Codec
Format profile                   : High@L4.1
Format settings, CABAC           : Yes
Format settings, ReFrames        : 5 frames
Muxing mode                      : Container profile=Unknown@4.1
Codec ID                         : V_MPEG4/ISO/AVC
Duration                         : 1h 47mn
Bit rate                         : 8 832 Kbps
Nominal bit rate                 : 9 083 Kbps
Width                            : 1 920 pixels
Height                           : 818 pixels
Display aspect ratio             : 2.35
Frame rate                       : 23.976 fps
Resolution                       : 24 bits
Colorimetry                      : 4:2:0
Scan type                        : Progressive
Bits/(Pixel*Frame)               : 0.235
Stream size                      : 6.62 GiB (84%)
Writing library                  : x264 core 68 r1195M 5d75a9b
Encoding settings                : cabac=1 / ref=5 / deblock=1:-3:-2 / analyse=0x3:0x113 / me=umh / subme=10 / psy_rd=1.1:0.0 / mixed_ref=1 / me_range=32 / chroma_me=1 / trellis=2 / 8x8dct=1 / cqm=0 / deadzone=21,11 / chroma_qp_offset=-4 / threads=3 / nr=0 / decimate=1 / mbaff=0 / bframes=6 / b_pyramid=1 / b_adapt=2 / b_bias=0 / direct=3 / wpredb=1 / keyint=250 / keyint_min=25 / scenecut=40 / rc=2pass / bitrate=9083 / ratetol=1.0 / qcomp=0.60 / qpmin=10 / qpmax=51 / qpstep=4 / cplxblur=20.0 / qblur=0.5 / vbv_maxrate=34567 / vbv_bufsize=36666 / ip_ratio=1.40 / pb_ratio=1.30 / aq=1:1.20 / zones=145921,152553,q=30

Audio
ID                               : 2
Format                           : DTS
Format/Info                      : Digital Theater Systems
Codec ID                         : A_DTS
Duration                         : 1h 47mn
Bit rate mode                    : Constant
Bit rate                         : 1 510 Kbps
Channel(s)                       : 6 channels
Channel positions                : Front: L C R, Surround: L R, LFE
Sampling rate                    : 48.0 KHz
Resolution                       : 24 bits
Stream size                      : 1.13 GiB (14%)
Language                         : English

Text
ID                               : 3
Format                           : UTF-8
Codec ID                         : S_TEXT/UTF8
Codec ID/Info                    : UTF-8 Plain Text
Language                         : Dutch


 
Ondertitels : Nederlands (instelbaar)
Thanks : Shamus  
Genre : Actie
Science Fiction
 



Weblink :  http://www.moviemeter.nl/film/47763
Weblink :  http://www.imdb.com/title/tt0458525/

TBS

Black-Sam